<mxfile host="app.diagrams.net" modified="2020-04-03T21:20:08.173Z" agent="5.0 (Macintosh; Intel Mac OS X 10_15_4) AppleWebKit/537.36 (KHTML, like Gecko) Chrome/80.0.3987.162 Safari/537.36" etag="dzVzRBbwdyFDW8Xdcbpb" version="12.9.7" type="github">
  <diagram id="C5RBs43oDa-KdzZeNtuy" name="Page-1">
    <mxGraphModel dx="946" dy="1009" grid="1" gridSize="10" guides="1" tooltips="1" connect="1" arrows="1" fold="1" page="1" pageScale="1" pageWidth="827" pageHeight="1169" math="0" shadow="0">
      <root>
        <mxCell id="WIyWlLk6GJQsqaUBKTNV-0" />
        <mxCell id="WIyWlLk6GJQsqaUBKTNV-1" parent="WIyWlLk6GJQsqaUBKTNV-0" />
        <mxCell id="_ewcM-NqU3cuId8VNTFL-47" value="" style="edgeStyle=entityRelationEdgeStyle;fontSize=12;html=1;endArrow=ERmany;exitX=1;exitY=0.5;exitDx=0;exitDy=0;entryX=0;entryY=0.5;entryDx=0;entryDy=0;" edge="1" parent="WIyWlLk6GJQsqaUBKTNV-1" source="_ewcM-NqU3cuId8VNTFL-12" target="_ewcM-NqU3cuId8VNTFL-23">
          <mxGeometry width="100" height="100" relative="1" as="geometry">
            <mxPoint x="407" y="474" as="sourcePoint" />
            <mxPoint x="507" y="374" as="targetPoint" />
          </mxGeometry>
        </mxCell>
        <mxCell id="_ewcM-NqU3cuId8VNTFL-48" value="" style="edgeStyle=entityRelationEdgeStyle;fontSize=12;html=1;endArrow=ERmany;entryX=0;entryY=0.5;entryDx=0;entryDy=0;exitX=1;exitY=0.5;exitDx=0;exitDy=0;" edge="1" parent="WIyWlLk6GJQsqaUBKTNV-1" source="_ewcM-NqU3cuId8VNTFL-21" target="_ewcM-NqU3cuId8VNTFL-43">
          <mxGeometry width="100" height="100" relative="1" as="geometry">
            <mxPoint x="674" y="277" as="sourcePoint" />
            <mxPoint x="774" y="325" as="targetPoint" />
          </mxGeometry>
        </mxCell>
        <mxCell id="_ewcM-NqU3cuId8VNTFL-49" value="" style="edgeStyle=entityRelationEdgeStyle;fontSize=12;html=1;endArrow=ERmany;exitX=1;exitY=0.5;exitDx=0;exitDy=0;entryX=0;entryY=0.5;entryDx=0;entryDy=0;" edge="1" parent="WIyWlLk6GJQsqaUBKTNV-1" source="_ewcM-NqU3cuId8VNTFL-30" target="_ewcM-NqU3cuId8VNTFL-18">
          <mxGeometry width="100" height="100" relative="1" as="geometry">
            <mxPoint x="97" y="257" as="sourcePoint" />
            <mxPoint x="167" y="305" as="targetPoint" />
          </mxGeometry>
        </mxCell>
        <mxCell id="_ewcM-NqU3cuId8VNTFL-50" value="" style="edgeStyle=entityRelationEdgeStyle;fontSize=12;html=1;endArrow=ERmany;exitX=1;exitY=0.5;exitDx=0;exitDy=0;entryX=0;entryY=0.5;entryDx=0;entryDy=0;" edge="1" parent="WIyWlLk6GJQsqaUBKTNV-1" source="_ewcM-NqU3cuId8VNTFL-30" target="_ewcM-NqU3cuId8VNTFL-41">
          <mxGeometry width="100" height="100" relative="1" as="geometry">
            <mxPoint x="97" y="265" as="sourcePoint" />
            <mxPoint x="657" y="514" as="targetPoint" />
          </mxGeometry>
        </mxCell>
        <mxCell id="_ewcM-NqU3cuId8VNTFL-11" value="events" style="swimlane;fontStyle=0;childLayout=stackLayout;horizontal=1;startSize=26;horizontalStack=0;resizeParent=1;resizeParentMax=0;resizeLast=0;collapsible=1;marginBottom=0;align=center;fontSize=14;" vertex="1" parent="WIyWlLk6GJQsqaUBKTNV-1">
          <mxGeometry x="227" y="80" width="160" height="186" as="geometry" />
        </mxCell>
        <mxCell id="_ewcM-NqU3cuId8VNTFL-12" value="id" style="shape=partialRectangle;top=0;left=0;right=0;bottom=1;align=left;verticalAlign=middle;fillColor=none;spacingLeft=34;spacingRight=4;overflow=hidden;rotatable=0;points=[[0,0.5],[1,0.5]];portConstraint=eastwest;dropTarget=0;fontStyle=5;fontSize=12;" vertex="1" parent="_ewcM-NqU3cuId8VNTFL-11">
          <mxGeometry y="26" width="160" height="30" as="geometry" />
        </mxCell>
        <mxCell id="_ewcM-NqU3cuId8VNTFL-13" value="PK" style="shape=partialRectangle;top=0;left=0;bottom=0;fillColor=none;align=left;verticalAlign=middle;spacingLeft=4;spacingRight=4;overflow=hidden;rotatable=0;points=[];portConstraint=eastwest;part=1;fontSize=12;" vertex="1" connectable="0" parent="_ewcM-NqU3cuId8VNTFL-12">
          <mxGeometry width="30" height="30" as="geometry" />
        </mxCell>
        <mxCell id="_ewcM-NqU3cuId8VNTFL-14" value="title" style="shape=partialRectangle;top=0;left=0;right=0;bottom=0;align=left;verticalAlign=top;fillColor=none;spacingLeft=34;spacingRight=4;overflow=hidden;rotatable=0;points=[[0,0.5],[1,0.5]];portConstraint=eastwest;dropTarget=0;fontSize=12;" vertex="1" parent="_ewcM-NqU3cuId8VNTFL-11">
          <mxGeometry y="56" width="160" height="26" as="geometry" />
        </mxCell>
        <mxCell id="_ewcM-NqU3cuId8VNTFL-15" value="" style="shape=partialRectangle;top=0;left=0;bottom=0;fillColor=none;align=left;verticalAlign=top;spacingLeft=4;spacingRight=4;overflow=hidden;rotatable=0;points=[];portConstraint=eastwest;part=1;fontSize=12;" vertex="1" connectable="0" parent="_ewcM-NqU3cuId8VNTFL-14">
          <mxGeometry width="30" height="26" as="geometry" />
        </mxCell>
        <mxCell id="_ewcM-NqU3cuId8VNTFL-16" value="description" style="shape=partialRectangle;top=0;left=0;right=0;bottom=0;align=left;verticalAlign=top;fillColor=none;spacingLeft=34;spacingRight=4;overflow=hidden;rotatable=0;points=[[0,0.5],[1,0.5]];portConstraint=eastwest;dropTarget=0;fontSize=12;" vertex="1" parent="_ewcM-NqU3cuId8VNTFL-11">
          <mxGeometry y="82" width="160" height="26" as="geometry" />
        </mxCell>
        <mxCell id="_ewcM-NqU3cuId8VNTFL-17" value="" style="shape=partialRectangle;top=0;left=0;bottom=0;fillColor=none;align=left;verticalAlign=top;spacingLeft=4;spacingRight=4;overflow=hidden;rotatable=0;points=[];portConstraint=eastwest;part=1;fontSize=12;" vertex="1" connectable="0" parent="_ewcM-NqU3cuId8VNTFL-16">
          <mxGeometry width="30" height="26" as="geometry" />
        </mxCell>
        <mxCell id="_ewcM-NqU3cuId8VNTFL-18" value="owner_id" style="shape=partialRectangle;top=0;left=0;right=0;bottom=0;align=left;verticalAlign=top;fillColor=none;spacingLeft=34;spacingRight=4;overflow=hidden;rotatable=0;points=[[0,0.5],[1,0.5]];portConstraint=eastwest;dropTarget=0;fontSize=12;" vertex="1" parent="_ewcM-NqU3cuId8VNTFL-11">
          <mxGeometry y="108" width="160" height="26" as="geometry" />
        </mxCell>
        <mxCell id="_ewcM-NqU3cuId8VNTFL-19" value="FK" style="shape=partialRectangle;top=0;left=0;bottom=0;fillColor=none;align=left;verticalAlign=top;spacingLeft=4;spacingRight=4;overflow=hidden;rotatable=0;points=[];portConstraint=eastwest;part=1;fontSize=12;" vertex="1" connectable="0" parent="_ewcM-NqU3cuId8VNTFL-18">
          <mxGeometry width="30" height="26" as="geometry" />
        </mxCell>
        <mxCell id="_ewcM-NqU3cuId8VNTFL-51" value="URL" style="shape=partialRectangle;top=0;left=0;right=0;bottom=0;align=left;verticalAlign=top;fillColor=none;spacingLeft=34;spacingRight=4;overflow=hidden;rotatable=0;points=[[0,0.5],[1,0.5]];portConstraint=eastwest;dropTarget=0;fontSize=12;" vertex="1" parent="_ewcM-NqU3cuId8VNTFL-11">
          <mxGeometry y="134" width="160" height="26" as="geometry" />
        </mxCell>
        <mxCell id="_ewcM-NqU3cuId8VNTFL-52" value="" style="shape=partialRectangle;top=0;left=0;bottom=0;fillColor=none;align=left;verticalAlign=top;spacingLeft=4;spacingRight=4;overflow=hidden;rotatable=0;points=[];portConstraint=eastwest;part=1;fontSize=12;" vertex="1" connectable="0" parent="_ewcM-NqU3cuId8VNTFL-51">
          <mxGeometry width="30" height="26" as="geometry" />
        </mxCell>
        <mxCell id="_ewcM-NqU3cuId8VNTFL-53" value="confirmed_time" style="shape=partialRectangle;top=0;left=0;right=0;bottom=0;align=left;verticalAlign=top;fillColor=none;spacingLeft=34;spacingRight=4;overflow=hidden;rotatable=0;points=[[0,0.5],[1,0.5]];portConstraint=eastwest;dropTarget=0;fontSize=12;" vertex="1" parent="_ewcM-NqU3cuId8VNTFL-11">
          <mxGeometry y="160" width="160" height="26" as="geometry" />
        </mxCell>
        <mxCell id="_ewcM-NqU3cuId8VNTFL-54" value="" style="shape=partialRectangle;top=0;left=0;bottom=0;fillColor=none;align=left;verticalAlign=top;spacingLeft=4;spacingRight=4;overflow=hidden;rotatable=0;points=[];portConstraint=eastwest;part=1;fontSize=12;" vertex="1" connectable="0" parent="_ewcM-NqU3cuId8VNTFL-53">
          <mxGeometry width="30" height="26" as="geometry" />
        </mxCell>
        <mxCell id="_ewcM-NqU3cuId8VNTFL-29" value="users" style="swimlane;fontStyle=0;childLayout=stackLayout;horizontal=1;startSize=26;horizontalStack=0;resizeParent=1;resizeParentMax=0;resizeLast=0;collapsible=1;marginBottom=0;align=center;fontSize=14;" vertex="1" parent="WIyWlLk6GJQsqaUBKTNV-1">
          <mxGeometry x="7" y="294" width="160" height="108" as="geometry" />
        </mxCell>
        <mxCell id="_ewcM-NqU3cuId8VNTFL-30" value="id" style="shape=partialRectangle;top=0;left=0;right=0;bottom=1;align=left;verticalAlign=middle;fillColor=none;spacingLeft=34;spacingRight=4;overflow=hidden;rotatable=0;points=[[0,0.5],[1,0.5]];portConstraint=eastwest;dropTarget=0;fontStyle=5;fontSize=12;" vertex="1" parent="_ewcM-NqU3cuId8VNTFL-29">
          <mxGeometry y="26" width="160" height="30" as="geometry" />
        </mxCell>
        <mxCell id="_ewcM-NqU3cuId8VNTFL-31" value="PK" style="shape=partialRectangle;top=0;left=0;bottom=0;fillColor=none;align=left;verticalAlign=middle;spacingLeft=4;spacingRight=4;overflow=hidden;rotatable=0;points=[];portConstraint=eastwest;part=1;fontSize=12;" vertex="1" connectable="0" parent="_ewcM-NqU3cuId8VNTFL-30">
          <mxGeometry width="30" height="30" as="geometry" />
        </mxCell>
        <mxCell id="_ewcM-NqU3cuId8VNTFL-32" value="name" style="shape=partialRectangle;top=0;left=0;right=0;bottom=0;align=left;verticalAlign=top;fillColor=none;spacingLeft=34;spacingRight=4;overflow=hidden;rotatable=0;points=[[0,0.5],[1,0.5]];portConstraint=eastwest;dropTarget=0;fontSize=12;" vertex="1" parent="_ewcM-NqU3cuId8VNTFL-29">
          <mxGeometry y="56" width="160" height="26" as="geometry" />
        </mxCell>
        <mxCell id="_ewcM-NqU3cuId8VNTFL-33" value="" style="shape=partialRectangle;top=0;left=0;bottom=0;fillColor=none;align=left;verticalAlign=top;spacingLeft=4;spacingRight=4;overflow=hidden;rotatable=0;points=[];portConstraint=eastwest;part=1;fontSize=12;" vertex="1" connectable="0" parent="_ewcM-NqU3cuId8VNTFL-32">
          <mxGeometry width="30" height="26" as="geometry" />
        </mxCell>
        <mxCell id="_ewcM-NqU3cuId8VNTFL-34" value="email" style="shape=partialRectangle;top=0;left=0;right=0;bottom=0;align=left;verticalAlign=top;fillColor=none;spacingLeft=34;spacingRight=4;overflow=hidden;rotatable=0;points=[[0,0.5],[1,0.5]];portConstraint=eastwest;dropTarget=0;fontSize=12;" vertex="1" parent="_ewcM-NqU3cuId8VNTFL-29">
          <mxGeometry y="82" width="160" height="26" as="geometry" />
        </mxCell>
        <mxCell id="_ewcM-NqU3cuId8VNTFL-35" value="" style="shape=partialRectangle;top=0;left=0;bottom=0;fillColor=none;align=left;verticalAlign=top;spacingLeft=4;spacingRight=4;overflow=hidden;rotatable=0;points=[];portConstraint=eastwest;part=1;fontSize=12;" vertex="1" connectable="0" parent="_ewcM-NqU3cuId8VNTFL-34">
          <mxGeometry width="30" height="26" as="geometry" />
        </mxCell>
        <mxCell id="_ewcM-NqU3cuId8VNTFL-20" value="possible_times" style="swimlane;fontStyle=0;childLayout=stackLayout;horizontal=1;startSize=26;horizontalStack=0;resizeParent=1;resizeParentMax=0;resizeLast=0;collapsible=1;marginBottom=0;align=center;fontSize=14;" vertex="1" parent="WIyWlLk6GJQsqaUBKTNV-1">
          <mxGeometry x="447" y="188" width="160" height="134" as="geometry" />
        </mxCell>
        <mxCell id="_ewcM-NqU3cuId8VNTFL-21" value="id" style="shape=partialRectangle;top=0;left=0;right=0;bottom=1;align=left;verticalAlign=middle;fillColor=none;spacingLeft=34;spacingRight=4;overflow=hidden;rotatable=0;points=[[0,0.5],[1,0.5]];portConstraint=eastwest;dropTarget=0;fontStyle=5;fontSize=12;" vertex="1" parent="_ewcM-NqU3cuId8VNTFL-20">
          <mxGeometry y="26" width="160" height="30" as="geometry" />
        </mxCell>
        <mxCell id="_ewcM-NqU3cuId8VNTFL-22" value="PK" style="shape=partialRectangle;top=0;left=0;bottom=0;fillColor=none;align=left;verticalAlign=middle;spacingLeft=4;spacingRight=4;overflow=hidden;rotatable=0;points=[];portConstraint=eastwest;part=1;fontSize=12;" vertex="1" connectable="0" parent="_ewcM-NqU3cuId8VNTFL-21">
          <mxGeometry width="30" height="30" as="geometry" />
        </mxCell>
        <mxCell id="_ewcM-NqU3cuId8VNTFL-23" value="event_id" style="shape=partialRectangle;top=0;left=0;right=0;bottom=0;align=left;verticalAlign=top;fillColor=none;spacingLeft=34;spacingRight=4;overflow=hidden;rotatable=0;points=[[0,0.5],[1,0.5]];portConstraint=eastwest;dropTarget=0;fontSize=12;" vertex="1" parent="_ewcM-NqU3cuId8VNTFL-20">
          <mxGeometry y="56" width="160" height="26" as="geometry" />
        </mxCell>
        <mxCell id="_ewcM-NqU3cuId8VNTFL-24" value="FK" style="shape=partialRectangle;top=0;left=0;bottom=0;fillColor=none;align=left;verticalAlign=top;spacingLeft=4;spacingRight=4;overflow=hidden;rotatable=0;points=[];portConstraint=eastwest;part=1;fontSize=12;" vertex="1" connectable="0" parent="_ewcM-NqU3cuId8VNTFL-23">
          <mxGeometry width="30" height="26" as="geometry" />
        </mxCell>
        <mxCell id="_ewcM-NqU3cuId8VNTFL-25" value="start_time" style="shape=partialRectangle;top=0;left=0;right=0;bottom=0;align=left;verticalAlign=top;fillColor=none;spacingLeft=34;spacingRight=4;overflow=hidden;rotatable=0;points=[[0,0.5],[1,0.5]];portConstraint=eastwest;dropTarget=0;fontSize=12;" vertex="1" parent="_ewcM-NqU3cuId8VNTFL-20">
          <mxGeometry y="82" width="160" height="26" as="geometry" />
        </mxCell>
        <mxCell id="_ewcM-NqU3cuId8VNTFL-26" value="" style="shape=partialRectangle;top=0;left=0;bottom=0;fillColor=none;align=left;verticalAlign=top;spacingLeft=4;spacingRight=4;overflow=hidden;rotatable=0;points=[];portConstraint=eastwest;part=1;fontSize=12;" vertex="1" connectable="0" parent="_ewcM-NqU3cuId8VNTFL-25">
          <mxGeometry width="30" height="26" as="geometry" />
        </mxCell>
        <mxCell id="_ewcM-NqU3cuId8VNTFL-27" value="end_time" style="shape=partialRectangle;top=0;left=0;right=0;bottom=0;align=left;verticalAlign=top;fillColor=none;spacingLeft=34;spacingRight=4;overflow=hidden;rotatable=0;points=[[0,0.5],[1,0.5]];portConstraint=eastwest;dropTarget=0;fontSize=12;" vertex="1" parent="_ewcM-NqU3cuId8VNTFL-20">
          <mxGeometry y="108" width="160" height="26" as="geometry" />
        </mxCell>
        <mxCell id="_ewcM-NqU3cuId8VNTFL-28" value="" style="shape=partialRectangle;top=0;left=0;bottom=0;fillColor=none;align=left;verticalAlign=top;spacingLeft=4;spacingRight=4;overflow=hidden;rotatable=0;points=[];portConstraint=eastwest;part=1;fontSize=12;" vertex="1" connectable="0" parent="_ewcM-NqU3cuId8VNTFL-27">
          <mxGeometry width="30" height="26" as="geometry" />
        </mxCell>
        <mxCell id="_ewcM-NqU3cuId8VNTFL-38" value="votes" style="swimlane;fontStyle=0;childLayout=stackLayout;horizontal=1;startSize=26;horizontalStack=0;resizeParent=1;resizeParentMax=0;resizeLast=0;collapsible=1;marginBottom=0;align=center;fontSize=14;" vertex="1" parent="WIyWlLk6GJQsqaUBKTNV-1">
          <mxGeometry x="667" y="394" width="160" height="134" as="geometry" />
        </mxCell>
        <mxCell id="_ewcM-NqU3cuId8VNTFL-39" value="id" style="shape=partialRectangle;top=0;left=0;right=0;bottom=1;align=left;verticalAlign=middle;fillColor=none;spacingLeft=34;spacingRight=4;overflow=hidden;rotatable=0;points=[[0,0.5],[1,0.5]];portConstraint=eastwest;dropTarget=0;fontStyle=5;fontSize=12;" vertex="1" parent="_ewcM-NqU3cuId8VNTFL-38">
          <mxGeometry y="26" width="160" height="30" as="geometry" />
        </mxCell>
        <mxCell id="_ewcM-NqU3cuId8VNTFL-40" value="PK" style="shape=partialRectangle;top=0;left=0;bottom=0;fillColor=none;align=left;verticalAlign=middle;spacingLeft=4;spacingRight=4;overflow=hidden;rotatable=0;points=[];portConstraint=eastwest;part=1;fontSize=12;" vertex="1" connectable="0" parent="_ewcM-NqU3cuId8VNTFL-39">
          <mxGeometry width="30" height="30" as="geometry" />
        </mxCell>
        <mxCell id="_ewcM-NqU3cuId8VNTFL-43" value="possible_time_id" style="shape=partialRectangle;top=0;left=0;right=0;bottom=0;align=left;verticalAlign=top;fillColor=none;spacingLeft=34;spacingRight=4;overflow=hidden;rotatable=0;points=[[0,0.5],[1,0.5]];portConstraint=eastwest;dropTarget=0;fontSize=12;" vertex="1" parent="_ewcM-NqU3cuId8VNTFL-38">
          <mxGeometry y="56" width="160" height="26" as="geometry" />
        </mxCell>
        <mxCell id="_ewcM-NqU3cuId8VNTFL-44" value="FK" style="shape=partialRectangle;top=0;left=0;bottom=0;fillColor=none;align=left;verticalAlign=top;spacingLeft=4;spacingRight=4;overflow=hidden;rotatable=0;points=[];portConstraint=eastwest;part=1;fontSize=12;" vertex="1" connectable="0" parent="_ewcM-NqU3cuId8VNTFL-43">
          <mxGeometry width="30" height="26" as="geometry" />
        </mxCell>
        <mxCell id="_ewcM-NqU3cuId8VNTFL-41" value="user_id" style="shape=partialRectangle;top=0;left=0;right=0;bottom=0;align=left;verticalAlign=top;fillColor=none;spacingLeft=34;spacingRight=4;overflow=hidden;rotatable=0;points=[[0,0.5],[1,0.5]];portConstraint=eastwest;dropTarget=0;fontSize=12;" vertex="1" parent="_ewcM-NqU3cuId8VNTFL-38">
          <mxGeometry y="82" width="160" height="26" as="geometry" />
        </mxCell>
        <mxCell id="_ewcM-NqU3cuId8VNTFL-42" value="FK" style="shape=partialRectangle;top=0;left=0;bottom=0;fillColor=none;align=left;verticalAlign=top;spacingLeft=4;spacingRight=4;overflow=hidden;rotatable=0;points=[];portConstraint=eastwest;part=1;fontSize=12;" vertex="1" connectable="0" parent="_ewcM-NqU3cuId8VNTFL-41">
          <mxGeometry width="30" height="26" as="geometry" />
        </mxCell>
        <mxCell id="_ewcM-NqU3cuId8VNTFL-45" value="vote" style="shape=partialRectangle;top=0;left=0;right=0;bottom=0;align=left;verticalAlign=top;fillColor=none;spacingLeft=34;spacingRight=4;overflow=hidden;rotatable=0;points=[[0,0.5],[1,0.5]];portConstraint=eastwest;dropTarget=0;fontSize=12;" vertex="1" parent="_ewcM-NqU3cuId8VNTFL-38">
          <mxGeometry y="108" width="160" height="26" as="geometry" />
        </mxCell>
        <mxCell id="_ewcM-NqU3cuId8VNTFL-46" value="" style="shape=partialRectangle;top=0;left=0;bottom=0;fillColor=none;align=left;verticalAlign=top;spacingLeft=4;spacingRight=4;overflow=hidden;rotatable=0;points=[];portConstraint=eastwest;part=1;fontSize=12;" vertex="1" connectable="0" parent="_ewcM-NqU3cuId8VNTFL-45">
          <mxGeometry width="30" height="26" as="geometry" />
        </mxCell>
      </root>
    </mxGraphModel>
  </diagram>
</mxfile>
